# xmcd
#
# Track frame offsets:
#	150
#	10637
#	28949
#	44211
#	61130
#	72236
#	85023
#	106242
#	126944
#	137862
#	153026
#	170482
#	187889
#	208129
#	221469
#
# Disc length: 3169 seconds
#
# Revision: 8
# Processed by: cddbd v1.5.1PL0 Copyright (c) Steve Scherf et al.
# Submitted via: EasyCDDAExtractor 8.0.1.1
#
DISCID=cf0c5f0f
DTITLE=Johnny Cash - Unearthed Volume 5 (Best Of Cash On American)
DYEAR=2003
DGENRE=Country
TTITLE0=Delia's Gone
TTITLE1=Bird On A Wire
TTITLE2=Thirteen
TTITLE3=Rowboat
TTITLE4=The One Rose
TTITLE5=Rusty Cage
TTITLE6=Southern Accents
TTITLE7=Mercy Seat
TTITLE8=Solitary Man
TTITLE9=Wayfaring Stranger
TTITLE10=One
TTITLE11=Hung My Head
TTITLE12=The Man Comes Around
TTITLE13=We'll Meet Again
TTITLE14=Hurt
EXTD=Limited Edition Deluxe Packaging With 5 Discs.\\r\n06024 9861335 1 YEAR: 
EXTD=2003
EXTT0=
EXTT1=
EXTT2=
EXTT3=
EXTT4=
EXTT5=
EXTT6=
EXTT7=
EXTT8=
EXTT9=
EXTT10=
EXTT11=
EXTT12=
EXTT13=
EXTT14=
PLAYORDER=
